<svg xmlns="http://www.w3.org/2000/svg" viewBox="0 0 96.00 104.00" width="96" height="104"><g transform="translate(-14 -10)">
  <defs>
    <linearGradient id="sti_white" gradientUnits="userSpaceOnUse" x1="88" y1="104" x2="88" y2="10">
      <stop offset="0" stop-color="#1E5E9C"/><stop offset="1" stop-color="#7CC4F0"/>
    </linearGradient>
    <linearGradient id="ndi_white" gradientUnits="userSpaceOnUse" x1="14" y1="112" x2="62" y2="64">
      <stop offset="0" stop-color="#1E5E9C"/><stop offset="1" stop-color="#7CC4F0"/>
    </linearGradient>
    <mask id="gapi_white" maskUnits="userSpaceOnUse" x="0" y="0" width="128" height="128">
      <rect width="128" height="128" fill="#fff"/>
      <path d="M88 108V40" stroke="#000" stroke-width="21" stroke-linecap="round"/>
    </mask>
  </defs>
  <path d="M28 90V30L88 100" fill="none" stroke="#FFFFFF" stroke-width="15" stroke-linecap="butt" stroke-linejoin="round" mask="url(#gapi_white)"/>
  <path d="M88 102V34" fill="none" stroke="url(#sti_white)" stroke-width="15" stroke-linecap="round"/>
  <path d="M88 14L101 34H75Z" fill="url(#sti_white)" stroke="url(#sti_white)" stroke-width="4" stroke-linejoin="round"/>
  <path d="M40.62 81.98A22 22 0 0 1 47.94 90.70M43.96 69.98A34 34 0 0 1 56.83 81.98" fill="none" stroke="url(#ndi_white)" stroke-width="7.5" stroke-linecap="round"/>
  <path fill-rule="evenodd" fill="url(#ndi_white)" d="M28 89a11 11 0 1 1 0 22a11 11 0 1 1 0-22ZM28 95.5a4.5 4.5 0 1 0 0 9a4.5 4.5 0 1 0 0-9Z"/></g>
</svg>
